<svg xmlns="http://www.w3.org/2000/svg" width="65.485" height="66.132" viewBox="0 0 65.485 66.132">
  <g id="Group_2" data-name="Group 2" transform="translate(-778.18 -56.635)">
    <g id="Symbols" transform="translate(778.18 56.635)">
      <g id="Logo-_-Nav-" data-name="Logo-/-Nav-" transform="translate(0 0)">
        <g id="logo-99minutos.6ca31ef5">
          <path id="Fill-12"
            d="M184.013,143.566a6.523,6.523,0,0,0-2.587-2.911,8.7,8.7,0,0,0-4.2-1.455,8.1,8.1,0,0,0-6.145,1.616,6.948,6.948,0,0,0-2.91,5.5,7.548,7.548,0,0,0,1.616,5.983,7.19,7.19,0,0,0,5.175,2.748,7.959,7.959,0,0,0,4.688-.97,7.373,7.373,0,0,1-1.94,3.88,4.015,4.015,0,0,1-3.557,1.132,3.389,3.389,0,0,1-1.778-.646L169.3,162a8.8,8.8,0,0,0,1.778.97,9.59,9.59,0,0,0,3.072.808,9.178,9.178,0,0,0,6.953-2.1,12.654,12.654,0,0,0,2.587-3.557,23.954,23.954,0,0,0,1.455-5.659,18.33,18.33,0,0,0-1.132-8.892Zm-5.336,6.306a3.9,3.9,0,0,1-2.748.646,2.971,2.971,0,0,1-2.264-1.294,4.739,4.739,0,0,1-.646-2.587,3.387,3.387,0,0,1,1.131-2.264,2.908,2.908,0,0,1,2.587-.646,3.618,3.618,0,0,1,2.426,1.293,3.807,3.807,0,0,1,.808,2.587,4,4,0,0,1-1.294,2.264Z"
            transform="translate(-154.908 -115.754)" fill="#fff" />
          <path id="Fill-13"
            d="M204.532,143.566a6.53,6.53,0,0,0-2.587-2.911,8.7,8.7,0,0,0-4.2-1.455,8.1,8.1,0,0,0-6.144,1.616,6.947,6.947,0,0,0-2.911,5.5A7.548,7.548,0,0,0,190.3,152.3a7.188,7.188,0,0,0,5.174,2.748,7.962,7.962,0,0,0,4.689-.97,7.379,7.379,0,0,1-1.94,3.88,4.015,4.015,0,0,1-3.557,1.132,3.387,3.387,0,0,1-1.778-.646L189.817,162a8.834,8.834,0,0,0,1.779.97,9.584,9.584,0,0,0,3.072.808,9.179,9.179,0,0,0,6.953-2.1,12.635,12.635,0,0,0,2.587-3.557,23.954,23.954,0,0,0,1.456-5.659c.323-3.718,0-6.629-1.132-8.892Zm-5.336,6.306a3.906,3.906,0,0,1-2.749.646,2.972,2.972,0,0,1-2.264-1.294,4.747,4.747,0,0,1-.646-2.587,3.392,3.392,0,0,1,1.132-2.264,2.907,2.907,0,0,1,2.587-.646,3.615,3.615,0,0,1,2.425,1.293,3.8,3.8,0,0,1,.809,2.587,4.01,4.01,0,0,1-1.294,2.264Z"
            transform="translate(-157.479 -115.754)" fill="#fff" />
          <path id="Fill-14"
            d="M213.493,132.458l5.013-5.013s-3.234-8.246-14.875-15.037l-5.013,5.013,5.821,5.82-1.294,1.294a30.393,30.393,0,0,0-50.125,23.284,30.4,30.4,0,1,0,53.52-19.888l1.294-1.294Zm-6.306,14.875a23.851,23.851,0,1,1-23.769-24.092,24.014,24.014,0,0,1,23.769,24.092Z"
            transform="translate(-153.021 -112.408)" fill="#85c440" />
        </g>
      </g>
    </g>
  </g>
</svg>
